<?xml version="1.0" encoding="UTF-8"?>
<svg width="973px" height="489px" viewBox="0 0 973 489" version="1.1" xmlns="http://www.w3.org/2000/svg" xmlns:xlink="http://www.w3.org/1999/xlink">
    <!-- Generator: Sketch 53.2 (72643) - https://sketchapp.com -->
    <title>title2</title>
    <desc>Created with Sketch.</desc>
    <g id="title2" stroke="none" stroke-width="1" fill="none" fill-rule="evenodd">
        <path d="M222.112,143.352 C222.112,177.144169 210.304118,203.447906 186.688,222.264 C169.407914,236.088069 146.272145,243 117.28,243 C116.511996,243 113.10403,242.904001 107.056,242.712 C101.00797,242.519999 92.2240576,242.424 80.704,242.424 L66.304,242.424 L43.552,242.712 C42.2079933,242.904001 40.7680077,243 39.232,243 C35.5839818,243 33.76,242.04001 33.76,240.12 C33.76,238.391991 36.8319693,237.528 42.976,237.528 C50.8480394,237.528 55.7439904,236.088014 57.664,233.208 C58.4320038,231.863993 58.816,228.21603 58.816,222.264 L58.816,67.032 C58.816,57.623953 58.0960072,52.1520077 56.656,50.616 C55.2159928,49.0799923 50.2720422,48.312 41.824,48.312 C37.4079779,48.312 35.2,47.2560106 35.2,45.144 C35.2,43.6079923 36.8319837,42.84 40.096,42.84 C39.903999,42.84 42.0159779,42.935999 46.432,43.128 C50.8480221,43.320001 55.1679789,43.416 59.392,43.416 L90.208,43.416 C124.768173,43.416 149.247928,45.815976 163.648,50.616 C181.120087,56.3760288 195.231946,67.751915 205.984,84.744 C216.736054,101.736085 222.112,121.27189 222.112,143.352 Z M189.856,142.2 C189.856,110.327841 183.616062,86.9520744 171.136,72.072 C158.655938,57.1919256 139.168132,49.752 112.672,49.752 C99.8079357,49.752 92.0320134,51.0959866 89.344,53.784 C88.1919942,55.1280067 87.616,59.7359606 87.616,67.608 L87.616,220.824 C87.616,226.200027 87.7599986,229.463994 88.048,230.616 C88.3360014,231.768006 89.1519933,232.727996 90.496,233.496 C95.104023,235.800012 104.799926,236.952 119.584,236.952 C140.320104,236.952 157.023937,229.656073 169.696,215.064 C183.136067,199.703923 189.856,175.416166 189.856,142.2 Z" id="D" fill="#F8ABFB"></path>
        <path d="M306.352,337.512 C306.352,371.304169 294.544118,397.607906 270.928,416.424 C253.647914,430.248069 230.512145,437.16 201.52,437.16 C200.751996,437.16 197.34403,437.064001 191.296,436.872 C185.24797,436.679999 176.464058,436.584 164.944,436.584 L150.544,436.584 L127.792,436.872 C126.447993,437.064001 125.008008,437.16 123.472,437.16 C119.823982,437.16 118,436.20001 118,434.28 C118,432.551991 121.071969,431.688 127.216,431.688 C135.088039,431.688 139.98399,430.248014 141.904,427.368 C142.672004,426.023993 143.056,422.37603 143.056,416.424 L143.056,261.192 C143.056,251.783953 142.336007,246.312008 140.896,244.776 C139.455993,243.239992 134.512042,242.472 126.064,242.472 C121.647978,242.472 119.44,241.416011 119.44,239.304 C119.44,237.767992 121.071984,237 124.336,237 C124.143999,237 126.255978,237.095999 130.672,237.288 C135.088022,237.480001 139.407979,237.576 143.632,237.576 L174.448,237.576 C209.008173,237.576 233.487928,239.975976 247.888,244.776 C265.360087,250.536029 279.471946,261.911915 290.224,278.904 C300.976054,295.896085 306.352,315.43189 306.352,337.512 Z M274.096,336.36 C274.096,304.487841 267.856062,281.112074 255.376,266.232 C242.895938,251.351926 223.408132,243.912 196.912,243.912 C184.047936,243.912 176.272013,245.255987 173.584,247.944 C172.431994,249.288007 171.856,253.895961 171.856,261.768 L171.856,414.984 C171.856,420.360027 171.999999,423.623994 172.288,424.776 C172.576001,425.928006 173.391993,426.887996 174.736,427.656 C179.344023,429.960012 189.039926,431.112 203.824,431.112 C224.560104,431.112 241.263937,423.816073 253.936,409.224 C267.376067,393.863923 274.096,369.576166 274.096,336.36 Z" id="D" fill="#F8ABFB"></path>
        <path d="M427.424,369.512 C427.424,371.43201 425.936015,374.839976 422.96,379.736 C419.983985,384.632024 416.960015,388.615985 413.888,391.688 C405.631959,400.136042 394.592069,404.36 380.768,404.36 C363.487914,404.36 349.040058,398.120062 337.424,385.64 C325.807942,373.159938 320,357.704092 320,339.272 C320,320.071904 325.519945,304.040064 336.56,291.176 C347.600055,278.311936 361.375917,271.88 377.888,271.88 C391.520068,271.88 402.943954,275.86396 412.16,283.832 C421.376046,291.80004 426.271997,302.023938 426.848,314.504 C420.703969,315.464005 412.544051,315.848001 402.368,315.656 L382.208,315.368 C380.863993,315.368 369.344108,315.655997 347.648,316.232 C346.687995,322.568032 346.208,328.615971 346.208,334.376 C346.208,353.768097 349.903963,368.695948 357.296,379.16 C364.688037,389.624052 375.103933,394.856 388.544,394.856 C396.224038,394.856 402.367977,393.128017 406.976,389.672 C411.584023,386.215983 416.575973,379.592049 421.952,369.8 C422.720004,368.263992 423.775993,367.496 425.12,367.496 C426.656008,367.496 427.424,368.167993 427.424,369.512 Z M402.368,310.76 C401.599996,287.719885 393.344079,276.2 377.6,276.2 C362.047922,276.2 352.352019,287.719885 348.512,310.76 L402.368,310.76 Z M541.132,277.352 C541.132,278.888008 539.308018,279.656 535.66,279.656 C534.315993,279.656 532.58801,279.560001 530.476,279.368 L528.748,279.368 C525.291983,279.368 522.604009,281.479979 520.684,285.704 L517.228,296.648 L493.036,370.952 C491.691993,374.792019 489.772012,380.647961 487.276,388.52 C484.203984,399.080053 481.708009,404.36 479.788,404.36 C478.443993,404.36 477.100007,402.536018 475.756,398.888 C474.795995,396.583988 473.836005,393.992014 472.876,391.112 C457.323922,349.06379 449.452001,328.135999 449.26,328.328 C439.27595,299.911858 433.22801,284.456012 431.116,281.96 C429.387991,280.231991 426.700018,279.463999 423.052,279.656 L416.428,279.944 C414.50799,279.944 413.548,279.176008 413.548,277.64 C413.548,276.103992 414.891986,275.336 417.58,275.336 L437.74,275.912 C440.812015,275.912 446.859955,275.816001 455.884,275.624 C465.676049,275.431999 470.763998,275.336 471.148,275.336 L472.588,275.336 C474.508009,275.336 475.468,276.007993 475.468,277.352 C475.468,278.888008 472.49203,279.656 466.54,279.656 C460.58797,279.656 457.612,280.423992 457.612,281.96 C457.612,284.072011 458.475991,287.239979 460.204,291.464 C463.276015,299.144038 469.227956,315.655873 478.06,341 C481.900019,352.328057 485.067987,360.96797 487.564,366.92 C492.940027,349.831915 497.739979,335.144061 501.964,322.856 C510.412042,297.895875 514.636,284.264012 514.636,281.96 C514.636,280.231991 513.196014,279.368 510.316,279.368 C508.779992,279.368 507.532005,279.463999 506.572,279.656 L503.98,279.656 C501.483987,279.656 500.236,278.888008 500.236,277.352 C500.236,276.007993 501.387988,275.336 503.692,275.336 L521.548,275.624 L532.492,275.336 C538.252029,275.143999 541.132,275.815992 541.132,277.352 Z M635.256,369.512 C635.256,371.43201 633.768014,374.839976 630.792,379.736 C627.815985,384.632024 624.792015,388.615985 621.72,391.688 C613.463958,400.136042 602.424069,404.36 588.6,404.36 C571.319913,404.36 556.872058,398.120062 545.256,385.64 C533.639942,373.159938 527.832,357.704092 527.832,339.272 C527.832,320.071904 533.351944,304.040064 544.392,291.176 C555.432055,278.311936 569.207917,271.88 585.72,271.88 C599.352068,271.88 610.775954,275.86396 619.992,283.832 C629.208046,291.80004 634.103997,302.023938 634.68,314.504 C628.535969,315.464005 620.37605,315.848001 610.2,315.656 L590.04,315.368 C588.695993,315.368 577.176108,315.655997 555.48,316.232 C554.519995,322.568032 554.04,328.615971 554.04,334.376 C554.04,353.768097 557.735963,368.695948 565.128,379.16 C572.520037,389.624052 582.935932,394.856 596.376,394.856 C604.056038,394.856 610.199977,393.128017 614.808,389.672 C619.416023,386.215983 624.407973,379.592049 629.784,369.8 C630.552003,368.263992 631.607993,367.496 632.952,367.496 C634.488007,367.496 635.256,368.167993 635.256,369.512 Z M610.2,310.76 C609.431996,287.719885 601.176078,276.2 585.432,276.2 C569.879922,276.2 560.184019,287.719885 556.344,310.76 L610.2,310.76 Z M726.499999,291.464 C726.499999,295.880022 725.156013,299.527986 722.467999,302.408 C719.779986,305.288014 716.324021,306.728 712.099999,306.728 C708.643982,306.728 705.764011,305.72001 703.459999,303.704 C701.155988,301.68799 700.003999,299.144015 700.003999,296.072 C700.003999,293.383987 700.867991,291.08001 702.595999,289.16 C704.324008,287.23999 705.187999,285.896004 705.187999,285.128 C705.187999,282.247986 703.076021,280.808 698.851999,280.808 C693.475973,280.808 688.868019,284.167966 685.027999,290.888 C680.611977,298.760039 678.403999,313.351893 678.403999,334.664 L678.403999,391.688 C678.403999,393.992012 679.219991,395.431997 680.851999,396.008 C682.484008,396.584003 687.427958,396.967999 695.683999,397.16 C697.79601,397.544002 698.851999,398.311994 698.851999,399.464 C698.851999,400.808007 697.604012,401.48 695.107999,401.48 C690.691977,401.48 686.564019,401.384001 682.723999,401.192 C678.88398,400.999999 671.588053,400.904 660.835999,400.904 C655.267972,400.904 651.236012,400.999999 648.739999,401.192 C646.243987,401.384001 643.076019,401.48 639.235999,401.48 C636.163984,401.48 634.627999,400.808007 634.627999,399.464 C634.627999,398.119993 635.875987,397.448 638.371999,397.448 L642.403999,397.448 C648.932032,397.448 652.771994,396.680008 653.923999,395.144 C654.308001,394.375996 654.499999,390.824032 654.499999,384.488 L654.499999,305.288 C654.499999,294.727947 652.916015,288.632008 649.747999,287 C646.579984,285.367992 641.540034,284.456001 634.627999,284.264 C632.323988,284.264 631.171999,283.592007 631.171999,282.248 C631.171999,280.903993 632.13199,280.232 634.051999,280.232 L636.067999,280.232 C638.948014,280.232 641.827985,280.375999 644.707999,280.664 C647.588014,280.952001 648.836001,281.096 648.451999,281.096 C655.556035,281.096 663.427956,279.08002 672.067999,275.048 L675.811999,273.32 L678.115999,272.456 C678.884003,277.064023 679.267999,281.671977 679.267999,286.28 L679.267999,292.04 C685.41203,278.599933 694.051944,271.88 705.187999,271.88 C711.33203,271.88 716.419979,273.751981 720.451999,277.496 C724.48402,281.240019 726.499999,285.895972 726.499999,291.464 Z M829.839999,369.512 C829.839999,371.43201 828.352014,374.839976 825.375999,379.736 C822.399984,384.632024 819.376015,388.615985 816.303999,391.688 C808.047958,400.136042 797.008068,404.36 783.183999,404.36 C765.903913,404.36 751.456057,398.120062 739.839999,385.64 C728.223941,373.159938 722.415999,357.704092 722.415999,339.272 C722.415999,320.071904 727.935944,304.040064 738.975999,291.176 C750.016054,278.311936 763.791917,271.88 780.303999,271.88 C793.936067,271.88 805.359953,275.86396 814.575999,283.832 C823.792045,291.80004 828.687996,302.023938 829.263999,314.504 C823.119969,315.464005 814.96005,315.848001 804.783999,315.656 L784.623999,315.368 C783.279993,315.368 771.760108,315.655997 750.063999,316.232 C749.103994,322.568032 748.623999,328.615971 748.623999,334.376 C748.623999,353.768097 752.319962,368.695948 759.711999,379.16 C767.104036,389.624052 777.519932,394.856 790.959999,394.856 C798.640038,394.856 804.783976,393.128017 809.391999,389.672 C814.000022,386.215983 818.991972,379.592049 824.367999,369.8 C825.136003,368.263992 826.191993,367.496 827.535999,367.496 C829.072007,367.496 829.839999,368.167993 829.839999,369.512 Z M804.783999,310.76 C804.015995,287.719885 795.760078,276.2 780.015999,276.2 C764.463921,276.2 754.768018,287.719885 750.927999,310.76 L804.783999,310.76 Z M889.115999,398.888 C889.115999,400.616009 887.868012,401.48 885.371999,401.48 L881.915999,401.48 C881.531997,401.48 876.444048,401.288002 866.651999,400.904 L857.723999,400.616 C856.187991,400.616 848.508068,400.903997 834.683999,401.48 C833.531993,401.672001 832.380005,401.768 831.227999,401.768 C828.347985,401.960001 826.907999,401.09601 826.907999,399.176 C826.907999,397.831993 827.963988,397.16 830.075999,397.16 L837.563999,397.16 C842.940026,397.16 845.627999,396.008012 845.627999,393.704 C845.82,392.551994 845.915999,385.064069 845.915999,371.24 L845.915999,224.648 C845.915999,218.311968 845.724001,214.856003 845.339999,214.28 C844.763996,212.743992 843.228012,211.976 840.731999,211.976 L838.427999,211.976 L830.363999,212.264 C827.675986,212.264 826.331999,211.400009 826.331999,209.672 C826.331999,208.135992 828.731975,207.272001 833.531999,207.08 C842.748045,206.503997 851.29196,204.392018 859.163999,200.744 L865.211999,197.864 L867.515999,197 C869.052007,202.568028 869.724,211.015943 869.531999,222.344 L869.243999,242.792 L869.531999,383.912 C869.531999,389.672029 869.627998,393.079995 869.819999,394.136 C870.012,395.192005 870.683993,395.911998 871.835999,396.296 C872.028,396.488001 875.579964,396.679999 882.491999,396.872 C886.908021,396.872 889.115999,397.543993 889.115999,398.888 Z M943.495999,398.888 C943.495999,400.616009 942.248011,401.48 939.751999,401.48 L936.295999,401.48 C935.911997,401.48 930.824048,401.288002 921.031999,400.904 L912.103999,400.616 C910.567991,400.616 902.888068,400.903997 889.063999,401.48 C887.911993,401.672001 886.760005,401.768 885.607999,401.768 C882.727984,401.960001 881.287999,401.09601 881.287999,399.176 C881.287999,397.831993 882.343988,397.16 884.455999,397.16 L891.943999,397.16 C897.320026,397.16 900.007999,396.008012 900.007999,393.704 C900.2,392.551994 900.295999,385.064069 900.295999,371.24 L900.295999,224.648 C900.295999,218.311968 900.104001,214.856003 899.719999,214.28 C899.143996,212.743992 897.608011,211.976 895.111999,211.976 L892.807999,211.976 L884.743999,212.264 C882.055985,212.264 880.711999,211.400009 880.711999,209.672 C880.711999,208.135992 883.111975,207.272001 887.911999,207.08 C897.128045,206.503997 905.671959,204.392018 913.543999,200.744 L919.591999,197.864 L921.895999,197 C923.432007,202.568028 924.104,211.015943 923.911999,222.344 L923.623999,242.792 L923.911999,383.912 C923.911999,389.672029 924.007998,393.079995 924.199999,394.136 C924.392,395.192005 925.063993,395.911998 926.215999,396.296 C926.408,396.488001 929.959964,396.679999 936.871999,396.872 C941.288021,396.872 943.495999,397.543993 943.495999,398.888 Z" id="everell" fill="#F8ABFB"></path>
        <path d="M346.184,207.944 C346.184,211.208016 342.776034,214.615982 335.96,218.168 C329.143966,221.720018 322.568032,223.496 316.232,223.496 C302.983934,223.496 296.072003,216.680068 295.496,203.048 C288.199964,217.256071 276.872077,224.36 261.512,224.36 C253.255959,224.36 246.440027,221.912024 241.064,217.016 C235.687973,212.119976 233,205.832038 233,198.152 C233,182.407921 242.503905,169.928046 261.512,160.712 C268.040033,157.639985 279.367919,154.568015 295.496,151.496 L295.496,144.296 C295.496,127.399916 294.632009,116.264027 292.904,110.888 C289.831985,101.095951 282.920054,96.2 272.168,96.2 C265.447966,96.2 259.832023,98.0239818 255.32,101.672 C250.807977,105.320018 248.552,109.927972 248.552,115.496 C248.552,117.032008 249.751988,117.8 252.152,117.8 C254.552012,117.8 256.71199,118.951988 258.632,121.256 C260.55201,123.560012 261.512,126.151986 261.512,129.032 C261.512,137.480042 257.288042,141.704 248.84,141.704 C244.423978,141.704 240.776014,140.216015 237.896,137.24 C235.015986,134.263985 233.576,130.472023 233.576,125.864 C233.576,116.839955 237.127964,109.064033 244.232,102.536 C252.104039,95.4319645 263.04793,91.88 277.064,91.88 C298.184106,91.88 311.143976,97.6399424 315.944,109.16 C317.672009,113.576022 318.536,122.311935 318.536,135.368 L318.536,189.224 C318.536,198.056044 318.631999,203.239992 318.824,204.776 C319.784005,211.688035 322.567977,215.144 327.176,215.144 C332.552027,215.144 336.967983,213.224019 340.424,209.384 C342.34401,207.271989 343.783995,206.216 344.744,206.216 C345.704005,206.216 346.184,206.791994 346.184,207.944 Z M295.496,177.416 L295.496,156.392 C281.095928,159.656016 270.776031,163.927974 264.536,169.208 C258.295969,174.488026 255.176,181.543956 255.176,190.376 C255.176,196.520031 256.951982,201.55998 260.504,205.496 C264.056018,209.43202 268.519973,211.4 273.896,211.4 C282.152041,211.4 288.775975,206.792046 293.768,197.576 C294.920006,195.463989 295.496,188.744057 295.496,177.416 Z M469.448,219.176 C469.448,220.712008 468.008015,221.48 465.128,221.48 L461.672,221.48 C458.215983,221.095998 453.51203,220.904 447.56,220.904 C428.743906,220.904 417.608017,221.095998 414.152,221.48 L412.136,221.48 C409.639988,221.48 408.392,220.808007 408.392,219.464 C408.392,218.503995 408.919995,217.928001 409.976,217.736 C411.032005,217.543999 414.727969,217.352001 421.064,217.16 C424.712018,216.967999 426.823997,216.440004 427.4,215.576 C427.976003,214.711996 428.264,211.592027 428.264,206.216 L428.264,150.92 C428.264,129.991895 427.496008,117.51202 425.96,113.48 C422.695984,104.839957 416.168049,100.52 406.376,100.52 C396.775952,100.52 388.712033,104.743958 382.184,113.192 C380.263991,115.688012 379.304,119.143978 379.304,123.56 L379.592,213.416 C379.592,215.720012 381.60798,216.967999 385.64,217.16 L394.28,217.448 C396.20001,217.448 397.16,218.119993 397.16,219.464 C397.16,220.808007 396.008012,221.48 393.704,221.48 L389.096,221.48 C384.871979,221.095998 378.152046,220.904 368.936,220.904 C366.82399,220.904 362.264035,220.999999 355.256,221.192 C348.247965,221.384001 344.168006,221.48 343.016,221.48 L341.288,221.48 C338.407986,221.48 336.968,220.808007 336.968,219.464 C336.968,218.119993 338.695983,217.256002 342.152,216.872 L349.352,216.872 C352.232015,216.872 353.959997,216.200007 354.536,214.856 L355.4,210.536 L355.4,147.752 C355.4,125.863891 355.208002,113.768012 354.824,111.464 C354.439998,109.159988 352.040022,108.008 347.624,108.008 C346.279993,108.008 343.976017,108.199998 340.712,108.584 L339.272,108.584 C335.431981,108.584 333.512,107.912007 333.512,106.568 C333.512,104.839991 335.52798,103.976 339.56,103.976 C345.320029,103.783999 351.559967,102.72801 358.28,100.808 C365.000034,98.8879904 369.703987,96.6800125 372.392,94.184 C374.120009,92.6479923 375.463995,91.88 376.424,91.88 C377.768007,91.88 378.44,93.7039818 378.44,97.352 L378.44,111.176 C388.42405,98.3119357 401.287921,91.88 417.032,91.88 C430.856069,91.88 440.839969,96.9679491 446.984,107.144 C450.440017,112.904029 452.168,123.847919 452.168,139.976 L452.168,205.64 C452.168,211.784031 452.455997,215.143997 453.032,215.72 C454.184006,216.872006 456.967978,217.448 461.384,217.448 C461.960003,217.448 463.015993,217.352001 464.552,217.16 L466.568,217.16 C468.48801,217.16 469.448,217.831993 469.448,219.176 Z M511.496,39.752 C511.496,48.3920432 507.176044,52.712 498.536,52.712 C494.887982,52.712 491.816013,51.512012 489.32,49.112 C486.823988,46.711988 485.576,43.7840173 485.576,40.328 C485.576,31.3039549 489.895957,26.792 498.536,26.792 C507.176044,26.792 511.496,31.1119568 511.496,39.752 Z M533.096,219.176 C533.096,220.904009 531.464017,221.768 528.2,221.768 C528.392001,221.768 526.088024,221.576002 521.288,221.192 C515.527972,220.807998 510.72802,220.616 506.888,220.616 L476.936,221.192 C475.975996,221.384001 474.824007,221.48 473.48,221.48 C471.36799,221.48 470.312,220.808007 470.312,219.464 C470.312,217.54399 472.231981,216.584 476.072,216.584 C483.368037,216.391999 487.351997,215.864004 488.024,215 C488.696004,214.135996 489.032,210.152036 489.032,203.048 L488.744,115.784 C488.551999,110.983976 488.312002,108.152004 488.024,107.288 C487.735999,106.423996 486.536011,105.992 484.424,105.992 L476.072,106.28 C475.303997,106.472001 474.344006,106.568 473.192,106.568 C471.07999,106.568 470.024,105.800008 470.024,104.264 C470.024,102.919993 471.655984,102.152001 474.92,101.96 C487.784065,101.383997 498.823954,98.3120278 508.04,92.744 L510.92,91.016 C512.456008,93.8960144 513.224,99.1759616 513.224,106.856 L513.224,109.736 C513.031999,112.040012 512.936,115.783974 512.936,120.968 L512.936,199.592 C512.936,207.272038 513.079999,211.783993 513.368,213.128 C513.656002,214.472007 514.663992,215.335998 516.392,215.72 C519.272015,216.488004 523.495973,216.872 529.064,216.872 C531.752014,216.872 533.096,217.639992 533.096,219.176 Z M644.840001,189.512 C644.840001,191.43201 643.352015,194.839976 640.376001,199.736 C637.399986,204.632024 634.376016,208.615985 631.304001,211.688 C623.047959,220.136042 612.00807,224.36 598.184001,224.36 C580.903914,224.36 566.456059,218.120062 554.840001,205.64 C543.223942,193.159938 537.416001,177.704092 537.416001,159.272 C537.416001,140.071904 542.935945,124.040064 553.976001,111.176 C565.016056,98.3119357 578.791918,91.88 595.304001,91.88 C608.936069,91.88 620.359954,95.8639602 629.576001,103.832 C638.792047,111.80004 643.687998,122.023938 644.264001,134.504 C638.11997,135.464005 629.960051,135.848001 619.784001,135.656 L599.624001,135.368 C598.279994,135.368 586.760109,135.655997 565.064001,136.232 C564.103996,142.568032 563.624001,148.615971 563.624001,154.376 C563.624001,173.768097 567.319964,188.695948 574.712001,199.16 C582.104038,209.624052 592.519933,214.856 605.960001,214.856 C613.640039,214.856 619.783978,213.128017 624.392001,209.672 C629.000024,206.215983 633.991974,199.592049 639.368001,189.8 C640.136004,188.263992 641.191994,187.496 642.536001,187.496 C644.072008,187.496 644.840001,188.167993 644.840001,189.512 Z M619.784001,130.76 C619.015997,107.719885 610.760079,96.2 595.016001,96.2 C579.463923,96.2 569.76802,107.719885 565.928001,130.76 L619.784001,130.76 Z M710.216001,218.888 C710.216001,220.616009 708.968013,221.48 706.472001,221.48 L703.016001,221.48 C702.631999,221.48 697.54405,221.288002 687.752001,220.904 L678.824001,220.616 C677.287993,220.616 669.60807,220.903997 655.784001,221.48 C654.631995,221.672001 653.480007,221.768 652.328001,221.768 C649.447986,221.960001 648.008001,221.09601 648.008001,219.176 C648.008001,217.831993 649.06399,217.16 651.176001,217.16 L658.664001,217.16 C664.040028,217.16 666.728001,216.008012 666.728001,213.704 C666.920002,212.551994 667.016001,205.064069 667.016001,191.24 L667.016001,44.648 C667.016001,38.3119683 666.824003,34.8560029 666.440001,34.28 C665.863998,32.7439923 664.328013,31.976 661.832001,31.976 L659.528001,31.976 L651.464001,32.264 C648.775987,32.264 647.432001,31.4000086 647.432001,29.672 C647.432001,28.1359923 649.831977,27.272001 654.632001,27.08 C663.848047,26.5039971 672.391961,24.3920182 680.264001,20.744 L686.312001,17.864 L688.616001,17 C690.152008,22.5680278 690.824002,31.0159434 690.632001,42.344 L690.344001,62.792 L690.632001,203.912 C690.632001,209.672029 690.728,213.079995 690.920001,214.136 C691.112002,215.192005 691.783995,215.911998 692.936001,216.296 C693.128002,216.488001 696.679966,216.679999 703.592001,216.872 C708.008023,216.872 710.216001,217.543993 710.216001,218.888 Z" id="aniel" fill="#F8ABFB"></path>
    </g>
</svg>